<mxfile host="app.diagrams.net" modified="2023-03-22T03:47:25.588Z" agent="5.0 (Macintosh; Intel Mac OS X 10_15_7) AppleWebKit/537.36 (KHTML, like Gecko) Chrome/110.0.0.0 Safari/537.36" etag="OwXsL4Y4N1Z4SnZfrHvP" version="20.8.20" type="github">
  <diagram name="Page-1" id="wSD7aWhiaOsn0769-55M">
    <mxGraphModel dx="1505" dy="881" grid="1" gridSize="10" guides="1" tooltips="1" connect="1" arrows="1" fold="1" page="1" pageScale="1" pageWidth="827" pageHeight="1169" math="0" shadow="0">
      <root>
        <mxCell id="0" />
        <mxCell id="1" parent="0" />
        <mxCell id="8S_lbJf9ANVd9fui1O2--10" style="edgeStyle=orthogonalEdgeStyle;rounded=0;orthogonalLoop=1;jettySize=auto;html=1;" parent="1" source="8S_lbJf9ANVd9fui1O2--1" target="8S_lbJf9ANVd9fui1O2--2" edge="1">
          <mxGeometry relative="1" as="geometry" />
        </mxCell>
        <mxCell id="8S_lbJf9ANVd9fui1O2--1" value="s1 -flink overwrite" style="rounded=1;whiteSpace=wrap;html=1;" parent="1" vertex="1">
          <mxGeometry x="60" y="160" width="120" height="60" as="geometry" />
        </mxCell>
        <mxCell id="8S_lbJf9ANVd9fui1O2--2" value="m1&lt;br&gt;add snapshot id=s1" style="rounded=1;whiteSpace=wrap;html=1;fillColor=#ffe6cc;strokeColor=#d79b00;" parent="1" vertex="1">
          <mxGeometry x="60" y="470" width="120" height="60" as="geometry" />
        </mxCell>
        <mxCell id="8S_lbJf9ANVd9fui1O2--11" style="edgeStyle=orthogonalEdgeStyle;rounded=0;orthogonalLoop=1;jettySize=auto;html=1;entryX=1;entryY=0.5;entryDx=0;entryDy=0;" parent="1" source="8S_lbJf9ANVd9fui1O2--4" target="8S_lbJf9ANVd9fui1O2--2" edge="1">
          <mxGeometry relative="1" as="geometry" />
        </mxCell>
        <mxCell id="8S_lbJf9ANVd9fui1O2--12" style="edgeStyle=orthogonalEdgeStyle;rounded=0;orthogonalLoop=1;jettySize=auto;html=1;entryX=0.573;entryY=-0.033;entryDx=0;entryDy=0;entryPerimeter=0;" parent="1" source="8S_lbJf9ANVd9fui1O2--4" target="8S_lbJf9ANVd9fui1O2--5" edge="1">
          <mxGeometry relative="1" as="geometry" />
        </mxCell>
        <mxCell id="8S_lbJf9ANVd9fui1O2--4" value="s2&lt;br&gt;flink overwrite" style="rounded=1;whiteSpace=wrap;html=1;" parent="1" vertex="1">
          <mxGeometry x="250" y="190" width="120" height="60" as="geometry" />
        </mxCell>
        <mxCell id="8S_lbJf9ANVd9fui1O2--5" value="m2&lt;br&gt;add snapshot id=s2" style="rounded=1;whiteSpace=wrap;html=1;" parent="1" vertex="1">
          <mxGeometry x="240" y="470" width="120" height="60" as="geometry" />
        </mxCell>
        <mxCell id="8S_lbJf9ANVd9fui1O2--13" style="edgeStyle=orthogonalEdgeStyle;rounded=0;orthogonalLoop=1;jettySize=auto;html=1;" parent="1" source="8S_lbJf9ANVd9fui1O2--7" target="8S_lbJf9ANVd9fui1O2--2" edge="1">
          <mxGeometry relative="1" as="geometry">
            <Array as="points">
              <mxPoint x="150" y="270" />
            </Array>
          </mxGeometry>
        </mxCell>
        <mxCell id="8S_lbJf9ANVd9fui1O2--14" style="edgeStyle=orthogonalEdgeStyle;rounded=0;orthogonalLoop=1;jettySize=auto;html=1;entryX=0.5;entryY=0;entryDx=0;entryDy=0;" parent="1" source="8S_lbJf9ANVd9fui1O2--7" target="8S_lbJf9ANVd9fui1O2--8" edge="1">
          <mxGeometry relative="1" as="geometry" />
        </mxCell>
        <mxCell id="8S_lbJf9ANVd9fui1O2--15" style="edgeStyle=orthogonalEdgeStyle;rounded=0;orthogonalLoop=1;jettySize=auto;html=1;entryX=1;entryY=0.5;entryDx=0;entryDy=0;" parent="1" source="8S_lbJf9ANVd9fui1O2--7" target="8S_lbJf9ANVd9fui1O2--5" edge="1">
          <mxGeometry relative="1" as="geometry" />
        </mxCell>
        <mxCell id="8S_lbJf9ANVd9fui1O2--7" value="s3&lt;br&gt;flink overwrite" style="rounded=1;whiteSpace=wrap;html=1;" parent="1" vertex="1">
          <mxGeometry x="430" y="240" width="120" height="60" as="geometry" />
        </mxCell>
        <mxCell id="8S_lbJf9ANVd9fui1O2--8" value="m3&lt;br&gt;add snapshot id=s2" style="rounded=1;whiteSpace=wrap;html=1;" parent="1" vertex="1">
          <mxGeometry x="430" y="470" width="120" height="60" as="geometry" />
        </mxCell>
        <mxCell id="8S_lbJf9ANVd9fui1O2--30" style="edgeStyle=orthogonalEdgeStyle;rounded=0;orthogonalLoop=1;jettySize=auto;html=1;entryX=1;entryY=0.5;entryDx=0;entryDy=0;" parent="1" source="8S_lbJf9ANVd9fui1O2--28" target="8S_lbJf9ANVd9fui1O2--8" edge="1">
          <mxGeometry relative="1" as="geometry">
            <mxPoint x="1170" y="500" as="targetPoint" />
          </mxGeometry>
        </mxCell>
        <mxCell id="8S_lbJf9ANVd9fui1O2--31" style="edgeStyle=orthogonalEdgeStyle;rounded=0;orthogonalLoop=1;jettySize=auto;html=1;entryX=0.5;entryY=0;entryDx=0;entryDy=0;" parent="1" source="8S_lbJf9ANVd9fui1O2--28" target="8S_lbJf9ANVd9fui1O2--29" edge="1">
          <mxGeometry relative="1" as="geometry" />
        </mxCell>
        <mxCell id="8S_lbJf9ANVd9fui1O2--33" style="edgeStyle=orthogonalEdgeStyle;rounded=0;orthogonalLoop=1;jettySize=auto;html=1;entryX=0.75;entryY=0;entryDx=0;entryDy=0;" parent="1" source="8S_lbJf9ANVd9fui1O2--28" target="8S_lbJf9ANVd9fui1O2--5" edge="1">
          <mxGeometry relative="1" as="geometry" />
        </mxCell>
        <mxCell id="8S_lbJf9ANVd9fui1O2--28" value="s4&lt;br&gt;spark replace" style="rounded=1;whiteSpace=wrap;html=1;" parent="1" vertex="1">
          <mxGeometry x="660" y="300" width="120" height="60" as="geometry" />
        </mxCell>
        <mxCell id="8S_lbJf9ANVd9fui1O2--29" value="m4&lt;br&gt;add snapshot id=s4" style="rounded=1;whiteSpace=wrap;html=1;fillColor=#ffe6cc;strokeColor=#d79b00;" parent="1" vertex="1">
          <mxGeometry x="660" y="470" width="120" height="60" as="geometry" />
        </mxCell>
        <mxCell id="8S_lbJf9ANVd9fui1O2--34" value="Text" style="text;html=1;strokeColor=none;fillColor=none;align=center;verticalAlign=middle;whiteSpace=wrap;rounded=0;" parent="1" vertex="1">
          <mxGeometry x="450" y="390" width="60" height="30" as="geometry" />
        </mxCell>
        <mxCell id="8S_lbJf9ANVd9fui1O2--36" style="edgeStyle=orthogonalEdgeStyle;rounded=0;orthogonalLoop=1;jettySize=auto;html=1;" parent="1" source="8S_lbJf9ANVd9fui1O2--35" target="8S_lbJf9ANVd9fui1O2--2" edge="1">
          <mxGeometry relative="1" as="geometry" />
        </mxCell>
        <mxCell id="8S_lbJf9ANVd9fui1O2--35" value="rewrite s1" style="ellipse;shape=cloud;whiteSpace=wrap;html=1;" parent="1" vertex="1">
          <mxGeometry x="60" y="610" width="120" height="80" as="geometry" />
        </mxCell>
        <mxCell id="8S_lbJf9ANVd9fui1O2--38" style="edgeStyle=orthogonalEdgeStyle;rounded=0;orthogonalLoop=1;jettySize=auto;html=1;entryX=0.5;entryY=1;entryDx=0;entryDy=0;" parent="1" source="8S_lbJf9ANVd9fui1O2--37" target="8S_lbJf9ANVd9fui1O2--5" edge="1">
          <mxGeometry relative="1" as="geometry" />
        </mxCell>
        <mxCell id="8S_lbJf9ANVd9fui1O2--39" style="edgeStyle=orthogonalEdgeStyle;rounded=0;orthogonalLoop=1;jettySize=auto;html=1;entryX=1;entryY=0.5;entryDx=0;entryDy=0;strokeColor=#e60510;strokeWidth=6;" parent="1" source="8S_lbJf9ANVd9fui1O2--37" target="8S_lbJf9ANVd9fui1O2--28" edge="1">
          <mxGeometry relative="1" as="geometry" />
        </mxCell>
        <mxCell id="8S_lbJf9ANVd9fui1O2--37" value="rewrite s2" style="ellipse;shape=cloud;whiteSpace=wrap;html=1;" parent="1" vertex="1">
          <mxGeometry x="240" y="610" width="120" height="80" as="geometry" />
        </mxCell>
        <mxCell id="FvmVjzz8w12ZDyq30Ky1-1" value="&lt;h1&gt;&lt;font style=&quot;font-size: 24px;&quot;&gt;滚动合并&lt;/font&gt;&lt;/h1&gt;&lt;p&gt;&lt;font style=&quot;font-size: 18px;&quot;&gt;问题：分区内积攒的delete file过多，合并读的deletefile 呈平方级上升，例如有10个snapshot每个snapshot 1个datafile ，1个equal delete，总读equal delete的数量大概是，9+8+7+6+5+4。。。，约等于10*5；n*n/2;&lt;/font&gt;&lt;/p&gt;&lt;p&gt;&lt;font style=&quot;font-size: 18px;&quot;&gt;如果能滚动合并，例如对半分，那么读equal delete的数量会下降；如256个snapshot，全量是256*128；如果对半合理想情况合成一个文件，128*64*2；如果分4份；64*32*4；8份：32*16*8；少读8倍；像贝塔挤压10小时，6000个snapshot的情况下；分多少分就能少多少倍；---看看算的对不对？？？同时考虑也不能拆的太散；合的也慢，写放大严重；&lt;/font&gt;&lt;/p&gt;&lt;p&gt;&lt;font style=&quot;font-size: 18px;&quot;&gt;之前的方案如上图问题：红色的线，s2的rewrite 看不到s4的replace导致滚动合并无效；&lt;/font&gt;&lt;/p&gt;&lt;p&gt;&lt;font style=&quot;font-size: 18px;&quot;&gt;&lt;br&gt;&lt;/font&gt;&lt;/p&gt;&lt;p&gt;&lt;font style=&quot;font-size: 18px;&quot;&gt;可能得方案：&lt;/font&gt;&lt;/p&gt;&lt;p&gt;&lt;font style=&quot;font-size: 18px;&quot;&gt;1、合并阻塞后，停止实时导入，不堆积；&lt;/font&gt;&lt;/p&gt;&lt;p&gt;&lt;font style=&quot;font-size: 18px;&quot;&gt;2、新增tablescan api，usesnapshotwithallreplace&lt;/font&gt;&lt;/p&gt;&lt;p&gt;&lt;font style=&quot;font-size: 18px;&quot;&gt;&lt;br&gt;&lt;/font&gt;&lt;/p&gt;&lt;p&gt;&lt;font style=&quot;font-size: 18px;&quot;&gt;&lt;br&gt;&lt;/font&gt;&lt;/p&gt;&lt;p&gt;&lt;font style=&quot;font-size: 18px;&quot;&gt;&lt;br&gt;&lt;/font&gt;&lt;/p&gt;&lt;p&gt;&lt;font style=&quot;font-size: 18px;&quot;&gt;&lt;br&gt;&lt;/font&gt;&lt;/p&gt;" style="text;html=1;strokeColor=none;fillColor=none;spacing=5;spacingTop=-20;whiteSpace=wrap;overflow=hidden;rounded=0;" parent="1" vertex="1">
          <mxGeometry x="60" y="750" width="730" height="630" as="geometry" />
        </mxCell>
      </root>
    </mxGraphModel>
  </diagram>
</mxfile>
